<svg width="16" height="12" viewBox="0 0 16 12" fill="none" xmlns="http://www.w3.org/2000/svg">
<g clip-path="url(#clip0_1_17312)">
<path d="M0 0H16V12H0V0Z" fill="white"/>
<path d="M6.80078 0H9.20078V12H6.80078V0Z" fill="#FF0000"/>
<path d="M0 4.80078H16V7.20078H0V4.80078Z" fill="#FF0000"/>
<path fill-rule="evenodd" clip-rule="evenodd" d="M3.66961 9.32906C3.69461 8.90906 3.76961 8.55156 3.76961 8.55156C3.76961 8.55156 3.52461 8.57656 3.39961 8.57656C3.27711 8.57656 3.02961 8.55156 3.02961 8.55156C3.02961 8.55156 3.10461 8.90906 3.12961 9.33156C2.70711 9.30656 2.34961 9.23156 2.34961 9.23156C2.34961 9.23156 2.37461 9.41656 2.37461 9.60156C2.37461 9.78656 2.34961 9.97156 2.34961 9.97156C2.34961 9.97156 2.70711 9.89656 3.12961 9.87156C3.10461 10.2941 3.02961 10.6516 3.02961 10.6516C3.02961 10.6516 3.21461 10.6266 3.39961 10.6266C3.58461 10.6266 3.76961 10.6516 3.76961 10.6516C3.76961 10.6516 3.69461 10.2941 3.66961 9.87156C4.09211 9.89656 4.44961 9.97156 4.44961 9.97156C4.44961 9.97156 4.42461 9.72656 4.42461 9.60156C4.42461 9.47906 4.44961 9.23156 4.44961 9.23156C4.44961 9.23156 4.09211 9.30656 3.67211 9.33156L3.66961 9.32906ZM12.8696 2.12906C12.8946 1.70906 12.9696 1.35156 12.9696 1.35156C12.9696 1.35156 12.7246 1.37656 12.5996 1.37656C12.4771 1.37656 12.2296 1.35156 12.2296 1.35156C12.2296 1.35156 12.3046 1.70906 12.3296 2.12906C11.9071 2.10406 11.5496 2.03156 11.5496 2.03156C11.5496 2.03156 11.5746 2.21656 11.5746 2.40156C11.5746 2.58656 11.5496 2.77156 11.5496 2.77156C11.5496 2.77156 11.9071 2.69656 12.3296 2.67156C12.3046 3.09406 12.2296 3.45156 12.2296 3.45156C12.2296 3.45156 12.4146 3.42656 12.5996 3.42656C12.7846 3.42656 12.9696 3.45156 12.9696 3.45156C12.9696 3.45156 12.8946 3.09406 12.8696 2.67406C13.2921 2.69906 13.6496 2.77406 13.6496 2.77406C13.6496 2.77406 13.6246 2.52406 13.6246 2.40156C13.6246 2.27906 13.6496 2.03156 13.6496 2.03156C13.6496 2.03156 13.2921 2.10656 12.8696 2.13156V2.12906ZM3.66961 2.12906C3.69461 1.70906 3.76961 1.35156 3.76961 1.35156C3.76961 1.35156 3.52461 1.37656 3.39961 1.37656C3.27711 1.37656 3.02961 1.35156 3.02961 1.35156C3.02961 1.35156 3.10461 1.70906 3.12961 2.13156C2.70711 2.10656 2.34961 2.03156 2.34961 2.03156C2.34961 2.03156 2.37461 2.21656 2.37461 2.40156C2.37461 2.58656 2.34961 2.77156 2.34961 2.77156C2.34961 2.77156 2.70711 2.69656 3.12961 2.67156C3.10461 3.09406 3.02961 3.45156 3.02961 3.45156C3.02961 3.45156 3.21461 3.42656 3.39961 3.42656C3.58461 3.42656 3.76961 3.45156 3.76961 3.45156C3.76961 3.45156 3.69461 3.09406 3.66961 2.67156C4.09211 2.69656 4.44961 2.77156 4.44961 2.77156C4.44961 2.77156 4.42461 2.52656 4.42461 2.40156C4.42461 2.27906 4.44961 2.03156 4.44961 2.03156C4.44961 2.03156 4.09211 2.10656 3.67211 2.13156L3.66961 2.12906ZM12.8696 9.32906C12.8946 8.90906 12.9696 8.55156 12.9696 8.55156C12.9696 8.55156 12.7246 8.57656 12.5996 8.57656C12.4771 8.57656 12.2296 8.55156 12.2296 8.55156C12.2296 8.55156 12.3046 8.90906 12.3296 9.33156C11.9071 9.30656 11.5496 9.23156 11.5496 9.23156C11.5496 9.23156 11.5746 9.41656 11.5746 9.60156C11.5746 9.78656 11.5496 9.97156 11.5496 9.97156C11.5496 9.97156 11.9071 9.89656 12.3296 9.87156C12.3046 10.2941 12.2296 10.6516 12.2296 10.6516C12.2296 10.6516 12.4146 10.6266 12.5996 10.6266C12.7846 10.6266 12.9696 10.6516 12.9696 10.6516C12.9696 10.6516 12.8946 10.2941 12.8696 9.87156C13.2921 9.89656 13.6496 9.97156 13.6496 9.97156C13.6496 9.97156 13.6246 9.72656 13.6246 9.60156C13.6246 9.47906 13.6496 9.23156 13.6496 9.23156C13.6496 9.23156 13.2921 9.30656 12.8696 9.33156V9.32906Z" fill="#FF0000"/>
</g>
<defs>
<clipPath id="clip0_1_17312">
<rect width="16" height="12" rx="2" fill="white"/>
</clipPath>
</defs>
</svg>
