<svg width="24" height="25" viewBox="0 0 24 25" fill="none" xmlns="http://www.w3.org/2000/svg">
<path d="M15 4.5V11.5H5.17L4 12.67V4.5H15ZM16 2.5H3C2.73478 2.5 2.48043 2.60536 2.29289 2.79289C2.10536 2.98043 2 3.23478 2 3.5V17.5L6 13.5H16C16.2652 13.5 16.5196 13.3946 16.7071 13.2071C16.8946 13.0196 17 12.7652 17 12.5V3.5C17 3.23478 16.8946 2.98043 16.7071 2.79289C16.5196 2.60536 16.2652 2.5 16 2.5ZM21 6.5H19V15.5H6V17.5C6 17.7652 6.10536 18.0196 6.29289 18.2071C6.48043 18.3946 6.73478 18.5 7 18.5H18L22 22.5V7.5C22 7.23478 21.8946 6.98043 21.7071 6.79289C21.5196 6.60536 21.2652 6.5 21 6.5Z" fill="#00AB89"/>
</svg>
