<svg width="34" height="34" viewBox="0 0 34 34" fill="none" xmlns="http://www.w3.org/2000/svg">
<rect width="34" height="34" rx="8" fill="#F6F3F1"/>
<path d="M22.9 22.39C22.64 21.59 21.89 21 21 21H20V18C20 17.7348 19.8946 17.4804 19.7071 17.2929C19.5196 17.1054 19.2652 17 19 17H13V15H15C15.2652 15 15.5196 14.8946 15.7071 14.7071C15.8946 14.5196 16 14.2652 16 14V12H18C18.5304 12 19.0391 11.7893 19.4142 11.4142C19.7893 11.0391 20 10.5304 20 10V9.59C22.93 10.77 25 13.64 25 17C25 19.08 24.2 20.97 22.9 22.39ZM16 24.93C12.05 24.44 9 21.08 9 17C9 16.38 9.08 15.78 9.21 15.21L14 20V21C14 21.5304 14.2107 22.0391 14.5858 22.4142C14.9609 22.7893 15.4696 23 16 23M17 7C15.6868 7 14.3864 7.25866 13.1732 7.7612C11.9599 8.26375 10.8575 9.00035 9.92893 9.92893C8.05357 11.8043 7 14.3478 7 17C7 19.6522 8.05357 22.1957 9.92893 24.0711C10.8575 24.9997 11.9599 25.7362 13.1732 26.2388C14.3864 26.7413 15.6868 27 17 27C19.6522 27 22.1957 25.9464 24.0711 24.0711C25.9464 22.1957 27 19.6522 27 17C27 15.6868 26.7413 14.3864 26.2388 13.1732C25.7362 11.9599 24.9997 10.8575 24.0711 9.92893C23.1425 9.00035 22.0401 8.26375 20.8268 7.7612C19.6136 7.25866 18.3132 7 17 7Z" fill="#7B809A"/>
</svg>
