<svg width="25" height="24" viewBox="0 0 25 24" fill="none" xmlns="http://www.w3.org/2000/svg">
<path d="M16.6392 6V17.5C16.6392 18.5609 16.2177 19.5783 15.4676 20.3284C14.7174 21.0786 13.7 21.5 12.6392 21.5C11.5783 21.5 10.5609 21.0786 9.81073 20.3284C9.06059 19.5783 8.63916 18.5609 8.63916 17.5V5C8.63916 4.33696 8.90255 3.70107 9.37139 3.23223C9.84023 2.76339 10.4761 2.5 11.1392 2.5C11.8022 2.5 12.4381 2.76339 12.9069 3.23223C13.3758 3.70107 13.6392 4.33696 13.6392 5V15.5C13.6392 15.7652 13.5338 16.0196 13.3463 16.2071C13.1587 16.3946 12.9044 16.5 12.6392 16.5C12.3739 16.5 12.1196 16.3946 11.9321 16.2071C11.7445 16.0196 11.6392 15.7652 11.6392 15.5V6H10.1392V15.5C10.1392 16.163 10.4026 16.7989 10.8714 17.2678C11.3402 17.7366 11.9761 18 12.6392 18C13.3022 18 13.9381 17.7366 14.4069 17.2678C14.8758 16.7989 15.1392 16.163 15.1392 15.5V5C15.1392 3.93913 14.7177 2.92172 13.9676 2.17157C13.2174 1.42143 12.2 1 11.1392 1C10.0783 1 9.06088 1.42143 8.31073 2.17157C7.56059 2.92172 7.13916 3.93913 7.13916 5V17.5C7.13916 18.9587 7.71862 20.3576 8.75007 21.3891C9.78152 22.4205 11.1805 23 12.6392 23C14.0979 23 15.4968 22.4205 16.5282 21.3891C17.5597 20.3576 18.1392 18.9587 18.1392 17.5V6H16.6392Z" fill="#00AB89"/>
</svg>
