<svg width="24" height="24" viewBox="0 0 24 24" fill="none" xmlns="http://www.w3.org/2000/svg">
<path d="M20.0016 19.88V22L18.2016 20.83L13.4116 11.83C14.0681 11.6243 14.6743 11.2836 15.1916 10.83M15.0016 7C15.0016 7.79565 14.6855 8.55871 14.1229 9.12132C13.5603 9.68393 12.7972 10 12.0016 10C11.8551 10.0099 11.7081 10.0099 11.5616 10L5.80156 20.83L4.00156 22V19.88L9.79156 9C9.40692 8.57 9.15443 8.03821 9.06433 7.46836C8.97424 6.8985 9.05038 6.31476 9.28361 5.78708C9.51685 5.25939 9.89729 4.81015 10.3794 4.49319C10.8614 4.17623 11.4247 4.00499 12.0016 4V2C12.2668 2 12.5211 2.10536 12.7087 2.29289C12.8962 2.48043 13.0016 2.73478 13.0016 3V4.18C13.5851 4.38631 14.0906 4.76807 14.4486 5.27293C14.8067 5.7778 14.9998 6.38106 15.0016 7ZM13.0016 7C13.0016 6.80222 12.9429 6.60888 12.833 6.44443C12.7232 6.27998 12.567 6.15181 12.3842 6.07612C12.2015 6.00043 12.0005 5.98063 11.8065 6.01921C11.6125 6.0578 11.4343 6.15304 11.2945 6.29289C11.1546 6.43275 11.0594 6.61093 11.0208 6.80491C10.9822 6.99889 11.002 7.19996 11.0777 7.38268C11.1534 7.56541 11.2815 7.72159 11.446 7.83147C11.6104 7.94135 11.8038 8 12.0016 8C12.2668 8 12.5211 7.89464 12.7087 7.70711C12.8962 7.51957 13.0016 7.26522 13.0016 7ZM4.22156 10L6.00156 11.8L4.56156 14.56L2.10156 12.1M12.0016 17.76L10.5016 16.25L9.00156 19L12.0016 22L15.0016 19L13.5316 16.23M19.7816 10L18.0016 11.8L19.5016 14.56L21.9016 12.1L19.7816 10Z" fill="#00AB89"/>
</svg>
