<svg width="34" height="34" viewBox="0 0 34 34" fill="none" xmlns="http://www.w3.org/2000/svg">
<path d="M16.9987 30.332C9.6487 30.332 3.66536 24.3487 3.66536 16.9987C3.66536 9.6487 9.6487 3.66536 16.9987 3.66536C24.3487 3.66536 30.332 9.6487 30.332 16.9987C30.332 24.3487 24.3487 30.332 16.9987 30.332ZM16.9987 0.332031C14.81 0.332031 12.6427 0.763127 10.6206 1.60071C8.59855 2.43828 6.76123 3.66594 5.21358 5.21358C2.08798 8.33919 0.332031 12.5784 0.332031 16.9987C0.332031 21.419 2.08798 25.6582 5.21358 28.7838C6.76123 30.3315 8.59855 31.5591 10.6206 32.3967C12.6427 33.2343 14.81 33.6654 16.9987 33.6654C21.419 33.6654 25.6582 31.9094 28.7838 28.7838C31.9094 25.6582 33.6654 21.419 33.6654 16.9987C33.6654 14.81 33.2343 12.6427 32.3967 10.6206C31.5591 8.59855 30.3315 6.76123 28.7838 5.21358C27.2362 3.66594 25.3988 2.43828 23.3768 1.60071C21.3547 0.763127 19.1874 0.332031 16.9987 0.332031ZM18.6654 8.66537H15.332V15.332H8.66537V18.6654H15.332V25.332H18.6654V18.6654H25.332V15.332H18.6654V8.66537Z" fill="#00AB89"/>
</svg>
